<svg xmlns="http://www.w3.org/2000/svg" xmlns:xlink="http://www.w3.org/1999/xlink" version="1.1" width="256" height="256" viewBox="0 0 256 256" xml:space="preserve">

<defs>
</defs>
<g style="stroke: none; stroke-width: 0; stroke-dasharray: none; stroke-linecap: butt; stroke-linejoin: miter; stroke-miterlimit: 10; fill: none; fill-rule: nonzero; opacity: 1;" transform="translate(1.4065934065934016 1.4065934065934016) scale(2.81 2.81)" >
	<path d="M 62.083 52.781 h -0.251 c -0.592 0 -1.15 0.144 -1.644 0.398 c -0.287 -1.696 -1.766 -2.991 -3.542 -2.991 h -0.251 c -0.664 0 -1.286 0.181 -1.819 0.496 c -0.511 -1.363 -1.827 -2.336 -3.366 -2.336 h -0.252 c -0.571 0 -1.111 0.134 -1.592 0.372 v -5.519 c 0 -1.981 -1.612 -3.592 -3.593 -3.592 h -0.251 c -1.981 0 -3.593 1.611 -3.593 3.592 v 13.715 l -1.74 1.32 c -1.32 1.002 -2.157 2.46 -2.356 4.105 c -0.2 1.645 0.265 3.261 1.307 4.549 l 5.305 6.558 v 2.639 c 0 1.502 1.222 2.724 2.724 2.724 h 13.174 c 1.502 0 2.724 -1.222 2.724 -2.724 v -2.506 c 1.686 -2.103 2.61 -4.719 2.61 -7.408 v -9.8 C 65.676 54.393 64.064 52.781 62.083 52.781 z" style="stroke: none; stroke-width: 1; stroke-dasharray: none; stroke-linecap: butt; stroke-linejoin: miter; stroke-miterlimit: 10; fill: rgb(0,0,0); fill-rule: nonzero; opacity: 1;" transform=" matrix(1 0 0 1 0 0) " stroke-linecap="round" />
	<path d="M 84.03 45.409 H 56.145 c -0.553 0 -1 -0.448 -1 -1 s 0.447 -1 1 -1 H 84.03 c 2.188 0 3.97 -1.781 3.97 -3.97 v -22.28 c 0 -2.189 -1.781 -3.97 -3.97 -3.97 H 5.97 c -2.189 0 -3.97 1.781 -3.97 3.97 v 22.28 c 0 2.189 1.781 3.97 3.97 3.97 h 28.039 c 0.552 0 1 0.448 1 1 s -0.448 1 -1 1 H 5.97 c -3.292 0 -5.97 -2.678 -5.97 -5.97 v -22.28 c 0 -3.292 2.678 -5.97 5.97 -5.97 h 78.06 c 3.292 0 5.97 2.678 5.97 5.97 v 22.28 C 90 42.731 87.322 45.409 84.03 45.409 z" style="stroke: none; stroke-width: 1; stroke-dasharray: none; stroke-linecap: butt; stroke-linejoin: miter; stroke-miterlimit: 10; fill: rgb(0,0,0); fill-rule: nonzero; opacity: 1;" transform=" matrix(1 0 0 1 0 0) " stroke-linecap="round" />
	<path d="M 49.877 36.95 c -0.356 0 -0.716 -0.086 -1.047 -0.26 l -3.715 -1.953 c -0.072 -0.038 -0.159 -0.038 -0.229 0 L 41.17 36.69 c -0.764 0.4 -1.67 0.334 -2.367 -0.171 c -0.697 -0.507 -1.04 -1.349 -0.895 -2.199 l 0.709 -4.135 c 0.014 -0.081 -0.013 -0.163 -0.072 -0.221 l -3.004 -2.928 c -0.618 -0.602 -0.835 -1.485 -0.569 -2.305 c 0.266 -0.819 0.961 -1.405 1.814 -1.529 l 4.152 -0.604 c 0.081 -0.012 0.151 -0.062 0.187 -0.135 l 1.857 -3.763 c 0.382 -0.773 1.154 -1.253 2.016 -1.253 s 1.634 0.48 2.016 1.253 l 0 0 l 1.857 3.763 c 0.036 0.074 0.106 0.124 0.187 0.136 l 4.152 0.604 c 0.853 0.124 1.548 0.709 1.814 1.529 c 0.267 0.82 0.049 1.703 -0.568 2.305 l -3.005 2.929 c -0.059 0.056 -0.085 0.139 -0.071 0.22 l 0.709 4.135 c 0.146 0.85 -0.197 1.692 -0.895 2.199 C 50.803 36.805 50.342 36.95 49.877 36.95 z" style="stroke: none; stroke-width: 1; stroke-dasharray: none; stroke-linecap: butt; stroke-linejoin: miter; stroke-miterlimit: 10; fill: rgb(0,0,0); fill-rule: nonzero; opacity: 1;" transform=" matrix(1 0 0 1 0 0) " stroke-linecap="round" />
	<path d="M 23.023 36.95 c -0.357 0 -0.716 -0.086 -1.047 -0.26 l -3.714 -1.953 c -0.072 -0.038 -0.159 -0.038 -0.23 0 l -3.714 1.953 c -0.763 0.401 -1.67 0.335 -2.368 -0.172 c -0.697 -0.506 -1.04 -1.349 -0.895 -2.198 l 0.709 -4.135 c 0.014 -0.081 -0.013 -0.163 -0.072 -0.221 l -3.004 -2.928 c -0.618 -0.602 -0.835 -1.485 -0.569 -2.305 c 0.267 -0.819 0.962 -1.406 1.815 -1.529 l 4.152 -0.604 c 0.081 -0.012 0.151 -0.062 0.187 -0.135 l 1.858 -3.763 c 0.381 -0.772 1.153 -1.253 2.015 -1.253 c 0.862 0 1.635 0.48 2.016 1.253 l 1.857 3.763 c 0.036 0.073 0.106 0.124 0.187 0.135 l 4.153 0.604 c 0.853 0.124 1.548 0.71 1.814 1.529 c 0.267 0.82 0.049 1.703 -0.568 2.305 L 24.6 29.965 c -0.059 0.057 -0.085 0.139 -0.071 0.22 l 0.709 4.135 c 0.146 0.849 -0.197 1.691 -0.894 2.198 C 23.949 36.805 23.488 36.95 23.023 36.95 z" style="stroke: none; stroke-width: 1; stroke-dasharray: none; stroke-linecap: butt; stroke-linejoin: miter; stroke-miterlimit: 10; fill: rgb(0,0,0); fill-rule: nonzero; opacity: 1;" transform=" matrix(1 0 0 1 0 0) " stroke-linecap="round" />
	<path d="M 66.977 36.95 c -0.465 0 -0.926 -0.146 -1.319 -0.432 c -0.697 -0.507 -1.04 -1.349 -0.895 -2.199 l 0.71 -4.136 c 0.014 -0.08 -0.014 -0.163 -0.073 -0.22 l -3.004 -2.928 c -0.617 -0.603 -0.835 -1.486 -0.568 -2.306 c 0.267 -0.819 0.962 -1.405 1.814 -1.529 l 4.153 -0.604 c 0.08 -0.012 0.15 -0.062 0.187 -0.135 l 1.856 -3.763 c 0.382 -0.773 1.154 -1.253 2.016 -1.253 s 1.634 0.48 2.016 1.253 l 0 0 l 1.857 3.763 c 0.036 0.074 0.106 0.124 0.187 0.136 l 4.152 0.604 c 0.854 0.124 1.549 0.71 1.815 1.53 c 0.266 0.82 0.048 1.703 -0.569 2.305 l -3.005 2.929 c -0.059 0.056 -0.085 0.139 -0.071 0.22 l 0.709 4.135 c 0.146 0.85 -0.196 1.692 -0.894 2.198 s -1.605 0.572 -2.367 0.172 l -3.715 -1.953 c -0.07 -0.038 -0.156 -0.039 -0.229 0 l -3.716 1.953 C 67.692 36.864 67.333 36.95 66.977 36.95 z" style="stroke: none; stroke-width: 1; stroke-dasharray: none; stroke-linecap: butt; stroke-linejoin: miter; stroke-miterlimit: 10; fill: rgb(0,0,0); fill-rule: nonzero; opacity: 1;" transform=" matrix(1 0 0 1 0 0) " stroke-linecap="round" />
</g>
</svg>